<svg width="39" height="41" viewBox="0 0 39 41" fill="none" xmlns="http://www.w3.org/2000/svg">
<path d="M14.4184 1.0032L10.092 8.49672L17.5855 12.8231M4.83337 18.0664C4.31599 21.3115 4.92239 24.636 6.55215 27.4894C8.18192 30.3428 10.7373 32.5541 13.7952 33.7571C16.8532 34.9601 20.2303 35.0827 23.3674 34.1046C26.5045 33.1265 29.2135 31.1063 31.0459 28.3785C32.8782 25.6508 33.7241 22.379 33.4434 19.105C33.1626 15.8309 31.7722 12.7509 29.5022 10.3749C27.2322 7.99892 24.2189 6.46939 20.9611 6.03958C17.7032 5.60977 14.3963 6.30546 11.5878 8.01147" stroke="white" stroke-width="2" stroke-linecap="round" stroke-linejoin="round"/>
<path d="M12.0667 19.0914V18.0114C12.6907 18.0194 13.2187 17.9154 13.6507 17.6994C14.1307 17.4514 14.4187 17.0914 14.5147 16.6194H15.6307V25.0194H14.1307V19.0914H12.0667ZM18.6746 21.2154L19.5746 16.6194H23.9186V17.8434H20.5946L20.1626 19.9794L20.1866 20.0034C20.5706 19.5794 21.0866 19.3674 21.7346 19.3674C22.5506 19.3674 23.1986 19.6354 23.6786 20.1714C24.1346 20.6834 24.3626 21.3514 24.3626 22.1754C24.3626 22.9514 24.1386 23.6194 23.6906 24.1794C23.1546 24.8514 22.4106 25.1874 21.4586 25.1874C20.6186 25.1874 19.9346 24.9714 19.4066 24.5394C18.8466 24.0834 18.5506 23.4474 18.5186 22.6314H19.8866C19.9266 23.0794 20.0826 23.4274 20.3546 23.6754C20.6266 23.9234 20.9866 24.0474 21.4346 24.0474C22.4746 24.0474 22.9946 23.4314 22.9946 22.1994C22.9946 21.7034 22.8666 21.2954 22.6106 20.9754C22.3226 20.6234 21.9186 20.4474 21.3986 20.4474C20.6866 20.4474 20.2346 20.7034 20.0426 21.2154H18.6746Z" fill="white"/>
</svg>
