<svg width="40" height="41" viewBox="0 0 40 41" fill="none" xmlns="http://www.w3.org/2000/svg">
<path d="M25.178 1.0032L29.5044 8.49672L22.0109 12.8231M34.7631 18.0664C35.2804 21.3115 34.674 24.636 33.0443 27.4894C31.4145 30.3428 28.8591 32.5541 25.8012 33.7571C22.7432 34.9601 19.3662 35.0827 16.229 34.1046C13.0919 33.1265 10.3829 31.1063 8.55056 28.3785C6.71819 25.6508 5.87235 22.379 6.15307 19.105C6.43379 15.8309 7.82424 12.7509 10.0942 10.3749C12.3642 7.99892 15.3775 6.46939 18.6354 6.03958C21.8932 5.60977 25.2001 6.30546 28.0087 8.01147" stroke="white" stroke-width="2" stroke-linecap="round" stroke-linejoin="round"/>
<path d="M12.8884 19.0914V18.0114C13.5124 18.0194 14.0404 17.9154 14.4724 17.6994C14.9524 17.4514 15.2404 17.0914 15.3364 16.6194H16.4524V25.0194H14.9524V19.0914H12.8884ZM19.4964 21.2154L20.3964 16.6194H24.7404V17.8434H21.4164L20.9844 19.9794L21.0084 20.0034C21.3924 19.5794 21.9084 19.3674 22.5564 19.3674C23.3724 19.3674 24.0204 19.6354 24.5004 20.1714C24.9564 20.6834 25.1844 21.3514 25.1844 22.1754C25.1844 22.9514 24.9604 23.6194 24.5124 24.1794C23.9764 24.8514 23.2324 25.1874 22.2804 25.1874C21.4404 25.1874 20.7564 24.9714 20.2284 24.5394C19.6684 24.0834 19.3724 23.4474 19.3404 22.6314H20.7084C20.7484 23.0794 20.9044 23.4274 21.1764 23.6754C21.4484 23.9234 21.8084 24.0474 22.2564 24.0474C23.2964 24.0474 23.8164 23.4314 23.8164 22.1994C23.8164 21.7034 23.6884 21.2954 23.4324 20.9754C23.1444 20.6234 22.7404 20.4474 22.2204 20.4474C21.5084 20.4474 21.0564 20.7034 20.8644 21.2154H19.4964Z" fill="white"/>
</svg>
